<?xml version="1.0" encoding="UTF-8"?>
<svg version="1.1" xmlns="http://www.w3.org/2000/svg" width="256" height="256">
<path d="M0 0 C19.34357371 16.51124647 33.37829459 35.80752851 41.6640625 59.91015625 C41.89456299 60.57257324 42.12506348 61.23499023 42.36254883 61.91748047 C46.53147492 74.80547895 47.91327047 87.75504802 47.7890625 101.22265625 C47.78568878 101.93971741 47.78231506 102.65677856 47.77883911 103.39556885 C47.70042112 114.94915351 46.85403165 125.84565136 43.3515625 136.91015625 C43.11018555 137.68955566 42.86880859 138.46895508 42.62011719 139.27197266 C37.1587184 156.42900846 28.78682883 171.07348399 17.3515625 184.91015625 C16.7225 185.68101562 16.0934375 186.451875 15.4453125 187.24609375 C11.47247597 191.95932255 7.13653293 196.03111826 2.3515625 199.91015625 C1.48917969 200.61011719 0.62679687 201.31007812 -0.26171875 202.03125 C-29.27617126 224.68529479 -63.46121191 232.10962125 -99.73291016 228.61279297 C-132.30265314 224.3122209 -161.70836745 206.15122387 -182.29980469 180.88378906 C-193.34605656 166.44954939 -200.71426346 150.33383327 -205.6484375 132.91015625 C-205.99003906 131.73195312 -206.33164063 130.55375 -206.68359375 129.33984375 C-212.88780255 103.08016928 -209.41623097 73.41275861 -198.6484375 48.91015625 C-198.36516602 48.25595703 -198.08189453 47.60175781 -197.79003906 46.92773438 C-184.50416539 16.83266141 -158.92687464 -6.87402964 -128.45214844 -18.9609375 C-123.25349867 -20.92030702 -117.99243399 -22.57648875 -112.6484375 -24.08984375 C-111.47023438 -24.43144531 -110.29203125 -24.77304687 -109.078125 -25.125 C-71.91216204 -33.90596927 -29.43835184 -24.14652242 0 0 Z " fill="#FE7D64" transform="translate(208.6484375,27.08984375)"/>
<path d="M0 0 C4.47187381 0.36654703 6.40039034 1.45585005 9.8125 4.3125 C11.96713404 7.02921249 11.81413415 8.28199592 11.625 11.8125 C10.82474493 15.2597526 10.0070297 16.66077662 7.8125 19.3125 C7.10735154 21.45983927 7.10735154 21.45983927 6.8125 23.3125 C8.48699219 23.45558594 8.48699219 23.45558594 10.1953125 23.6015625 C15.29836566 24.24140858 19.88420633 25.9074126 24.6875 27.6875 C28.05562718 28.91605953 31.42896777 30.12698827 34.8125 31.3125 C35.62154785 31.6000415 36.4305957 31.88758301 37.26416016 32.18383789 C43.67656288 34.30578576 49.70889434 34.84278959 56.4375 35 C57.44167969 35.03416016 58.44585937 35.06832031 59.48046875 35.10351562 C61.92436718 35.18497891 64.36795281 35.25444922 66.8125 35.3125 C66.8125 36.6325 66.8125 37.9525 66.8125 39.3125 C63.19180902 42.73204148 59.86442035 45.3125 54.8125 45.3125 C56.5170672 48.82802955 58.31103391 52.28982054 60.125 55.75 C60.60517578 56.74322266 61.08535156 57.73644531 61.58007812 58.75976562 C64.43329074 64.31331103 64.43329074 64.31331103 69.68505859 67.19580078 C72.44614505 67.44680864 75.04923718 67.5067021 77.8125 67.3125 C77.8125 68.3025 77.8125 69.2925 77.8125 70.3125 C76.8225 70.3125 75.8325 70.3125 74.8125 70.3125 C74.65394531 70.89257812 74.49539062 71.47265625 74.33203125 72.0703125 C72.30581982 78.8542027 69.58492101 83.87927921 63.375 87.6875 C56.94725046 90.59035463 49.07657319 90.45273476 42.34375 88.65234375 C37.40881671 86.46009454 33.61563971 82.9137063 30.8125 78.3125 C29.83058769 75.61696189 29.31140439 73.15625503 28.8125 70.3125 C27.8225 70.3125 26.8325 70.3125 25.8125 70.3125 C25.8125 69.3225 25.8125 68.3325 25.8125 67.3125 C26.53477783 67.35705322 27.25705566 67.40160645 28.0012207 67.44750977 C31.18081484 67.440874 33.76018411 67.22782759 36.8125 66.3125 C39.72739165 63.36971465 41.28918151 59.99034385 43 56.25 C43.47501953 55.30060547 43.95003906 54.35121094 44.43945312 53.37304688 C45.60249561 51.035214 46.72355371 48.68551799 47.8125 46.3125 C46.27529297 46.42078125 46.27529297 46.42078125 44.70703125 46.53125 C38.10574162 46.53125 31.83319592 44.49744889 25.5 42.8125 C22.98386011 42.15323826 20.46696636 41.49684493 17.94921875 40.84375 C16.84280029 40.55048828 15.73638184 40.25722656 14.59643555 39.95507812 C11.80149812 39.2000484 11.80149812 39.2000484 8.8125 39.3125 C9.3075 39.68375 9.8025 40.055 10.3125 40.4375 C12.44578708 43.10410885 12.16580461 44.99143663 11.8125 48.3125 C10.8225 49.3025 10.8225 49.3025 9.8125 50.3125 C8.86811386 57.6479644 9.44173012 62.30269141 13.8125 68.3125 C14.15644052 71.07414009 14.00533231 73.51643153 13.8125 76.3125 C15.4625 76.6425 17.1125 76.9725 18.8125 77.3125 C18.83935938 79.45826637 18.85883088 81.60412645 18.875 83.75 C18.88660156 84.94496094 18.89820313 86.13992187 18.91015625 87.37109375 C18.8125 90.3125 18.8125 90.3125 17.8125 91.3125 C14.80918982 91.45443337 11.82032866 91.35486378 8.8125 91.3125 C8.8125 96.2625 8.8125 101.2125 8.8125 106.3125 C10.30523437 106.28929687 11.79796875 106.26609375 13.3359375 106.2421875 C15.28645335 106.22343254 17.23697458 106.20523205 19.1875 106.1875 C20.17234375 106.17074219 21.1571875 106.15398437 22.171875 106.13671875 C23.11289063 106.13027344 24.05390625 106.12382812 25.0234375 106.1171875 C26.32740479 106.10147705 26.32740479 106.10147705 27.65771484 106.08544922 C29.8125 106.3125 29.8125 106.3125 31.8125 108.3125 C32.08241906 111.00089385 31.89987357 113.60391936 31.8125 116.3125 C32.43898438 116.28929687 33.06546875 116.26609375 33.7109375 116.2421875 C34.52820313 116.22414063 35.34546875 116.20609375 36.1875 116.1875 C36.99960938 116.16429687 37.81171875 116.14109375 38.6484375 116.1171875 C40.8125 116.3125 40.8125 116.3125 42.8125 118.3125 C43.11328125 120.80859375 43.11328125 120.80859375 43.125 123.75 C43.14175781 124.71808594 43.15851563 125.68617188 43.17578125 126.68359375 C42.8125 129.3125 42.8125 129.3125 41.75561523 130.95254517 C38.8115726 133.01303285 35.82482199 132.73016365 32.359375 132.70068359 C31.22477844 132.70856903 31.22477844 132.70856903 30.06726074 132.71661377 C27.56546414 132.72982414 25.06430314 132.72107232 22.5625 132.7109375 C20.82519407 132.71295794 19.08788896 132.71586914 17.35058594 132.71963501 C13.70890226 132.72405976 10.06743928 132.71762254 6.42578125 132.70361328 C1.75476516 132.68652122 -2.91573384 132.69636161 -7.58673096 132.71433067 C-11.17435613 132.72516449 -14.76185845 132.72172404 -18.3494873 132.7139473 C-20.07190003 132.71194417 -21.79432387 132.7144085 -23.51672363 132.72138596 C-25.92290855 132.72899395 -28.3282528 132.71740612 -30.734375 132.70068359 C-31.44823364 132.70675629 -32.16209229 132.71282898 -32.89758301 132.71908569 C-35.78403597 132.68186858 -37.72673572 132.63498144 -40.13061523 130.95254517 C-41.68672304 128.53781921 -41.54920519 126.5925458 -41.5 123.75 C-41.49613281 122.77933594 -41.49226563 121.80867188 -41.48828125 120.80859375 C-41.1875 118.3125 -41.1875 118.3125 -39.1875 116.3125 C-37.0234375 116.1171875 -37.0234375 116.1171875 -34.5625 116.1875 C-33.74523437 116.20554687 -32.92796875 116.22359375 -32.0859375 116.2421875 C-31.45945313 116.26539063 -30.83296875 116.28859375 -30.1875 116.3125 C-30.22875 115.03375 -30.27 113.755 -30.3125 112.4375 C-30.3828125 110.2578125 -30.3828125 110.2578125 -30.1875 108.3125 C-28.1875 106.3125 -28.1875 106.3125 -26.03271484 106.08544922 C-24.72874756 106.10115967 -24.72874756 106.10115967 -23.3984375 106.1171875 C-22.45742187 106.12363281 -21.51640625 106.13007813 -20.546875 106.13671875 C-19.56203125 106.15347656 -18.5771875 106.17023438 -17.5625 106.1875 C-16.56992188 106.19652344 -15.57734375 106.20554687 -14.5546875 106.21484375 C-12.09885612 106.23845751 -9.64314826 106.2743293 -7.1875 106.3125 C-7.1875 101.3625 -7.1875 96.4125 -7.1875 91.3125 C-9.3840625 91.3434375 -9.3840625 91.3434375 -11.625 91.375 C-13.14582518 91.39642007 -14.66821962 91.38429964 -16.1875 91.3125 C-17.1875 90.3125 -17.1875 90.3125 -17.28515625 87.37109375 C-17.27355469 86.17613281 -17.26195312 84.98117188 -17.25 83.75 C-17.24097656 82.55246094 -17.23195312 81.35492188 -17.22265625 80.12109375 C-17.21105469 79.19425781 -17.19945312 78.26742187 -17.1875 77.3125 C-14.7125 76.8175 -14.7125 76.8175 -12.1875 76.3125 C-12.27 75.11625 -12.3525 73.92 -12.4375 72.6875 C-12.46153521 69.23844787 -12.31709003 68.49068629 -10.1875 65.5625 C-7.23193682 60.75970983 -7.47665542 55.83394394 -8.1875 50.3125 C-8.8475 49.6525 -9.5075 48.9925 -10.1875 48.3125 C-10.53240322 44.25988713 -10.48913882 42.76495824 -8.1875 39.3125 C-11.0836931 39.91498156 -13.97949786 40.51921216 -16.875 41.125 C-18.16990356 41.39521973 -18.16990356 41.39521973 -19.4909668 41.67089844 C-25.50039637 42.93345406 -31.46952705 44.30184724 -37.42578125 45.796875 C-40.40209504 46.35256583 -43.16655237 46.40174513 -46.1875 46.3125 C-44.65108203 49.66064264 -43.02328197 52.95567254 -41.375 56.25 C-40.94251953 57.19552734 -40.51003906 58.14105469 -40.06445312 59.11523438 C-38.63436869 61.90539911 -37.39762069 64.08122983 -35.1875 66.3125 C-31.46234387 67.42959872 -28.05312002 67.55094817 -24.1875 67.3125 C-24.1875 68.3025 -24.1875 69.2925 -24.1875 70.3125 C-25.1775 70.3125 -26.1675 70.3125 -27.1875 70.3125 C-27.31125 70.95316406 -27.435 71.59382813 -27.5625 72.25390625 C-29.25605164 79.35623843 -32.02911366 83.34225826 -38.1875 87.3125 C-44.63460066 90.53065075 -52.77041127 90.47415956 -59.66796875 88.66015625 C-64.59107393 86.44142606 -68.38257528 82.9166363 -71.1875 78.3125 C-72.16941231 75.61696189 -72.68859561 73.15625503 -73.1875 70.3125 C-74.1775 70.3125 -75.1675 70.3125 -76.1875 70.3125 C-76.1875 69.3225 -76.1875 68.3325 -76.1875 67.3125 C-75.47102295 67.362854 -74.7545459 67.41320801 -74.01635742 67.46508789 C-70.81130915 67.47342107 -68.25867664 67.25687507 -65.1875 66.3125 C-62.12055202 63.21755682 -60.38458322 59.64817818 -58.5 55.75 C-57.97728516 54.75291016 -57.45457031 53.75582031 -56.91601562 52.72851562 C-55.6353493 50.27292607 -54.39570496 47.80432329 -53.1875 45.3125 C-54.09757812 45.21066406 -55.00765625 45.10882813 -55.9453125 45.00390625 C-59.31491025 44.28532938 -60.6019433 43.5629233 -63.0625 41.25 C-63.65804687 40.70214844 -64.25359375 40.15429688 -64.8671875 39.58984375 C-65.30289063 39.16832031 -65.73859375 38.74679688 -66.1875 38.3125 C-65.8575 37.3225 -65.5275 36.3325 -65.1875 35.3125 C-64.35895508 35.30633667 -64.35895508 35.30633667 -63.51367188 35.30004883 C-51.71037944 35.14725144 -41.33390823 34.17747482 -30.25 30.07128906 C-27.15631485 28.93312933 -24.03761512 27.87233394 -20.91479492 26.81713867 C-19.34385852 26.28555196 -17.77607333 25.74452828 -16.2121582 25.19262695 C-12.4133833 23.88603375 -9.26714017 22.96649501 -5.1875 23.3125 C-6.20229164 20.58036866 -7.17909681 18.32432671 -8.875 15.9375 C-10.71396683 12.25956635 -10.30604841 10.22741944 -9.1875 6.3125 C-6.6875 3.4375 -6.6875 3.4375 -4.1875 1.3125 C-3.1875 0.3125 -3.1875 0.3125 0 0 Z " fill="#0A0506" transform="translate(127.1875,61.6875)"/>
<path d="M0 0 C0.70548981 0.00202423 1.41097961 0.00404846 2.1378479 0.00613403 C3.24756454 0.00350555 3.24756454 0.00350555 4.37969971 0.00082397 C6.83686638 -0.00359453 9.29396168 -0.00065657 11.75112915 0.00271606 C13.45124322 0.00204302 15.1513572 0.001073 16.85147095 -0.00018311 C20.41926996 -0.00166008 23.98704398 0.00049445 27.55484009 0.00515747 C32.13851409 0.01085476 36.72212954 0.00757575 41.30580139 0.00158501 C44.81782476 -0.00202063 48.32983414 -0.00088201 51.84185791 0.0017128 C53.53243008 0.00238206 55.22300351 0.00155367 56.91357422 -0.00076675 C59.27222072 -0.00329332 61.6307711 0.00054735 63.9894104 0.00613403 C64.69490021 0.0041098 65.40039001 0.00208557 66.1272583 0 C70.94936644 0.02126585 70.94936644 0.02126585 72.06362915 1.13552856 C72.19644165 2.94802856 72.19644165 2.94802856 72.18862915 5.13552856 C72.19249634 6.21834106 72.19249634 6.21834106 72.19644165 7.32302856 C72.06362915 9.13552856 72.06362915 9.13552856 71.06362915 10.13552856 C68.6960134 10.23578552 66.35755842 10.27171792 63.9894104 10.2649231 C63.2495993 10.26667542 62.50978821 10.26842773 61.74755859 10.27023315 C59.29039192 10.27465166 56.83329662 10.2717137 54.37612915 10.26834106 C52.67601508 10.2690141 50.9759011 10.26998413 49.27578735 10.27124023 C45.70798834 10.27271721 42.14021432 10.27056268 38.57241821 10.26589966 C33.98874421 10.26020237 29.40512876 10.26348138 24.82145691 10.26947212 C21.30943355 10.27307776 17.79742417 10.27193914 14.28540039 10.26934433 C12.59482822 10.26867507 10.90425479 10.26950346 9.21368408 10.27182388 C6.85503758 10.27435045 4.4964872 10.27050978 2.1378479 10.2649231 C1.43235809 10.26694733 0.72686829 10.26897156 0 10.27105713 C-4.82210814 10.24979128 -4.82210814 10.24979128 -5.93637085 9.13552856 C-6.06918335 7.32302856 -6.06918335 7.32302856 -6.06137085 5.13552856 C-6.06394897 4.41365356 -6.0665271 3.69177856 -6.06918335 2.94802856 C-5.7898684 -0.86379902 -3.22140531 0.01420664 0 0 Z " fill="#EF9027" transform="translate(94.93637084960938,180.86447143554688)"/>
<path d="M0 0 C12.54 0 25.08 0 38 0 C36.86469345 6.81183932 36.86469345 6.81183932 34.25 9.75 C33.76015625 10.32234375 33.2703125 10.8946875 32.765625 11.484375 C28.48498954 15.15890279 24.04300816 15.31980858 18.5625 15.375 C17.28503906 15.40335938 16.00757813 15.43171875 14.69140625 15.4609375 C9.35677633 14.7948144 6.3684938 12.40548011 2.6875 8.625 C1 6 1 6 0 0 Z " fill="#F8AF4C" transform="translate(160,132)"/>
<path d="M0 0 C12.54 0 25.08 0 38 0 C36.86469345 6.81183932 36.86469345 6.81183932 34.25 9.75 C33.76015625 10.32234375 33.2703125 10.8946875 32.765625 11.484375 C28.48498954 15.15890279 24.04300816 15.31980858 18.5625 15.375 C17.28503906 15.40335938 16.00757812 15.43171875 14.69140625 15.4609375 C9.35677633 14.7948144 6.3684938 12.40548011 2.6875 8.625 C1 6 1 6 0 0 Z " fill="#F8AF4C" transform="translate(58,132)"/>
<path d="M0 0 C18.48 0 36.96 0 56 0 C56 1.98 56 3.96 56 6 C37.52 6 19.04 6 0 6 C0 4.02 0 2.04 0 0 Z " fill="#F1C58C" transform="translate(100,172)"/>
<path d="M0 0 C0 2.64 0 5.28 0 8 C-6.86102745 10.0066225 -13.76831626 11.8304621 -20.6875 13.625 C-22.49250977 14.11226562 -22.49250977 14.11226562 -24.33398438 14.609375 C-34.48461563 17.219694 -44.4430083 19.21290456 -54 14 C-54 13.34 -54 12.68 -54 12 C-53.00742188 11.97421875 -52.01484375 11.9484375 -50.9921875 11.921875 C-37.68459673 11.42698505 -26.29505465 8.00947288 -13.921875 3.10546875 C-9.34660683 1.37445151 -4.92941621 0 0 0 Z " fill="#5B504F" transform="translate(122,88)"/>
<path d="M0 0 C6.45479744 1.02457102 12.37220703 2.72810477 18.5 4.9375 C19.24499756 5.20409424 19.98999512 5.47068848 20.75756836 5.74536133 C23.7518152 6.82014287 26.74137161 7.90264276 29.71875 9.0234375 C37.56622535 11.73780397 45.77401722 11.7232558 54 12 C54 12.66 54 13.32 54 14 C42.63431584 19.05141518 33.06446642 16.63618001 21.3125 13.625 C20.03310547 13.30789062 18.75371094 12.99078125 17.43554688 12.6640625 C11.59207471 11.20698892 5.78450575 9.6739197 0 8 C0 5.36 0 2.72 0 0 Z " fill="#5D504F" transform="translate(134,88)"/>
<path d="M0 0 C9.9 0 19.8 0 30 0 C30 2.97 30 5.94 30 9 C20.1 9 10.2 9 0 9 C0 6.03 0 3.06 0 0 Z " fill="#F4C78E" transform="translate(113,141)"/>
<path d="M0 0 C3.47924392 0.8645394 4.91967516 2.61216046 6.93359375 5.48046875 C7.80859375 9.23046875 7.80859375 9.23046875 7.93359375 12.48046875 C6.41149785 14.00256465 5.05149293 13.61006396 2.93359375 13.61328125 C2.12921875 13.61457031 1.32484375 13.61585938 0.49609375 13.6171875 C-0.34953125 13.61332031 -1.19515625 13.60945312 -2.06640625 13.60546875 C-2.91203125 13.60933594 -3.75765625 13.61320313 -4.62890625 13.6171875 C-5.43328125 13.61589844 -6.23765625 13.61460937 -7.06640625 13.61328125 C-7.80890625 13.61215332 -8.55140625 13.61102539 -9.31640625 13.60986328 C-11.06640625 13.48046875 -11.06640625 13.48046875 -12.06640625 12.48046875 C-11.90674319 8.32922913 -11.40868307 5.96795392 -9.00390625 2.54296875 C-5.70288336 0.22522927 -3.9492524 -0.2762237 0 0 Z " fill="#F19128" transform="translate(130.06640625,124.51953125)"/>
<path d="M0 0 C3.42227763 1.14075921 3.61178034 1.5547193 5.26171875 4.5625 C5.65810547 5.27664062 6.05449219 5.99078125 6.46289062 6.7265625 C6.86701172 7.47679688 7.27113281 8.22703125 7.6875 9 C8.10322266 9.75023438 8.51894531 10.50046875 8.94726562 11.2734375 C12 16.82750924 12 16.82750924 12 18 C4.74 18 -2.52 18 -10 18 C-6.72221994 11.96590489 -3.43533637 5.94577449 0 0 Z " fill="#ED755E" transform="translate(178,111)"/>
<path d="M0 0 C3.42227763 1.14075921 3.61178034 1.5547193 5.26171875 4.5625 C5.65810547 5.27664062 6.05449219 5.99078125 6.46289062 6.7265625 C6.86701172 7.47679688 7.27113281 8.22703125 7.6875 9 C8.10322266 9.75023438 8.51894531 10.50046875 8.94726562 11.2734375 C12 16.82750924 12 16.82750924 12 18 C4.74 18 -2.52 18 -10 18 C-6.72221994 11.96590489 -3.43533637 5.94577449 0 0 Z " fill="#ED755E" transform="translate(76,111)"/>
<path d="M0 0 C2 1.0625 2 1.0625 3 3 C3.5 6.4375 3.5 6.4375 3 10 C0.58140437 12.69500656 -1.00763965 13.80636871 -4.5625 14.5 C-7.9249123 13.8102744 -9.0486167 12.81866476 -11 10 C-11.42213381 6.56262469 -11.60856522 4.17909511 -10 1.0625 C-6.75978228 -0.65886567 -3.58042244 -0.52960415 0 0 Z " fill="#F49428" transform="translate(132,66)"/>
<path d="M0 0 C3.3 0 6.6 0 10 0 C10.02685095 2.47923801 10.04676547 4.9581884 10.0625 7.4375 C10.07087891 8.14455078 10.07925781 8.85160156 10.08789062 9.58007812 C10.09653588 11.38693559 10.05220011 13.19387603 10 15 C9 16 9 16 7.1875 16.1328125 C6.465625 16.13023437 5.74375 16.12765625 5 16.125 C4.278125 16.12757813 3.55625 16.13015625 2.8125 16.1328125 C1 16 1 16 0 15 C-0.07313567 12.46950598 -0.09247527 9.96695163 -0.0625 7.4375 C-0.05798828 6.72658203 -0.05347656 6.01566406 -0.04882812 5.28320312 C-0.03700864 3.52209987 -0.01907263 1.76103964 0 0 Z " fill="#E7A148" transform="translate(123,153)"/>
<path d="M0 0 C1.98 0 3.96 0 6 0 C6 5.94 6 11.88 6 18 C4.02 18 2.04 18 0 18 C0 12.06 0 6.12 0 0 Z " fill="#F9CC91" transform="translate(125,83)"/>
<path d="M0 0 C4.62 0 9.24 0 14 0 C14.33 1.32 14.66 2.64 15 4 C13 6 13 6 10.25 6.265625 C9.1775 6.26046875 8.105 6.2553125 7 6.25 C5.39125 6.25773437 5.39125 6.25773437 3.75 6.265625 C1 6 1 6 -1 4 C-0.67 2.68 -0.34 1.36 0 0 Z " fill="#E38828" transform="translate(121,104)"/>
<path d="M0 0 C2.64 0 5.28 0 8 0 C8 2.97 8 5.94 8 9 C5.36 9 2.72 9 0 9 C0 6.03 0 3.06 0 0 Z " fill="#F7CC90" transform="translate(124,113)"/>
</svg>
